<?xml version="1.0" encoding="UTF-8"?>
<svg xmlns="http://www.w3.org/2000/svg" viewBox="0 0 100 100" role="img" aria-label="Triumvirate, the Three Pillars glyph">
  <title>Triumvirate, the Three Pillars — constellation glyph</title>
  <rect width="100%" height="100%" fill="#07051a"/>
  <circle cx="43.11" cy="71.88" r="0.78" fill="#f3f0ff" opacity="0.25" />
  <circle cx="86.40" cy="89.49" r="0.96" fill="#f3f0ff" opacity="0.20" />
  <circle cx="34.03" cy="80.70" r="0.77" fill="#f3f0ff" opacity="0.29" />
  <circle cx="24.55" cy="17.58" r="0.63" fill="#f3f0ff" opacity="0.20" />
  <circle cx="61.81" cy="68.11" r="0.78" fill="#f3f0ff" opacity="0.20" />
  <circle cx="90.33" cy="26.14" r="0.44" fill="#f3f0ff" opacity="0.26" />
  <line x1="25" y1="50" x2="50" y2="30" stroke="#fbbf24" stroke-width="0.5" opacity="0.55" stroke-linecap="round" />
  <line x1="25" y1="50" x2="50" y2="30" stroke="#fbbf24" stroke-width="0.8" stroke-dasharray="0.4 3" opacity="0.85" stroke-linecap="round" />
  <line x1="50" y1="30" x2="75" y2="50" stroke="#fbbf24" stroke-width="0.5" opacity="0.55" stroke-linecap="round" />
  <line x1="50" y1="30" x2="75" y2="50" stroke="#fbbf24" stroke-width="0.8" stroke-dasharray="0.4 3" opacity="0.85" stroke-linecap="round" />
  <circle cx="25" cy="50" r="6.24" fill="#fbbf24" opacity="0.18" />
  <circle cx="25" cy="50" r="3.90" fill="#fbbf24" opacity="0.35" />
  <circle cx="25" cy="50" r="2.6" fill="#fff7e0" />
  <g stroke="#fff7e0" stroke-width="0.4" stroke-linecap="round" opacity="0.9">
    <line x1="20" y1="50" x2="30" y2="50" />
    <line x1="25" y1="45" x2="25" y2="55" />
  </g>
  <circle cx="50" cy="30" r="4.32" fill="#fbbf24" opacity="0.18" />
  <circle cx="50" cy="30" r="2.70" fill="#fbbf24" opacity="0.35" />
  <circle cx="50" cy="30" r="1.8" fill="#fff7e0" />
  <circle cx="75" cy="50" r="4.32" fill="#fbbf24" opacity="0.18" />
  <circle cx="75" cy="50" r="2.70" fill="#fbbf24" opacity="0.35" />
  <circle cx="75" cy="50" r="1.8" fill="#fff7e0" />
</svg>
