<?xml version="1.0" encoding="UTF-8"?>
<svg xmlns="http://www.w3.org/2000/svg" viewBox="0 0 100 100" role="img" aria-label="Lyra, the Lyre glyph">
  <title>Lyra, the Lyre — constellation glyph</title>
  <rect width="100%" height="100%" fill="#07051a"/>
  <circle cx="24.79" cy="67.18" r="0.47" fill="#f3f0ff" opacity="0.34" />
  <circle cx="63.50" cy="29.79" r="0.72" fill="#f3f0ff" opacity="0.35" />
  <circle cx="51.43" cy="10.54" r="0.78" fill="#f3f0ff" opacity="0.24" />
  <circle cx="41.84" cy="32.64" r="0.75" fill="#f3f0ff" opacity="0.25" />
  <circle cx="62.08" cy="85.63" r="0.64" fill="#f3f0ff" opacity="0.18" />
  <circle cx="35.41" cy="45.03" r="0.85" fill="#f3f0ff" opacity="0.30" />
  <line x1="15" y1="50" x2="35" y2="30" stroke="#7be3ff" stroke-width="0.5" opacity="0.55" stroke-linecap="round" />
  <line x1="15" y1="50" x2="35" y2="30" stroke="#7be3ff" stroke-width="0.8" stroke-dasharray="0.4 3" opacity="0.85" stroke-linecap="round" />
  <line x1="35" y1="30" x2="50" y2="60" stroke="#7be3ff" stroke-width="0.5" opacity="0.55" stroke-linecap="round" />
  <line x1="35" y1="30" x2="50" y2="60" stroke="#7be3ff" stroke-width="0.8" stroke-dasharray="0.4 3" opacity="0.85" stroke-linecap="round" />
  <line x1="50" y1="60" x2="70" y2="35" stroke="#7be3ff" stroke-width="0.5" opacity="0.55" stroke-linecap="round" />
  <line x1="50" y1="60" x2="70" y2="35" stroke="#7be3ff" stroke-width="0.8" stroke-dasharray="0.4 3" opacity="0.85" stroke-linecap="round" />
  <line x1="70" y1="35" x2="88" y2="55" stroke="#7be3ff" stroke-width="0.5" opacity="0.55" stroke-linecap="round" />
  <line x1="70" y1="35" x2="88" y2="55" stroke="#7be3ff" stroke-width="0.8" stroke-dasharray="0.4 3" opacity="0.85" stroke-linecap="round" />
  <circle cx="15" cy="50" r="6.24" fill="#7be3ff" opacity="0.18" />
  <circle cx="15" cy="50" r="3.90" fill="#7be3ff" opacity="0.35" />
  <circle cx="15" cy="50" r="2.6" fill="#fff7e0" />
  <g stroke="#fff7e0" stroke-width="0.4" stroke-linecap="round" opacity="0.9">
    <line x1="10" y1="50" x2="20" y2="50" />
    <line x1="15" y1="45" x2="15" y2="55" />
  </g>
  <circle cx="35" cy="30" r="4.32" fill="#7be3ff" opacity="0.18" />
  <circle cx="35" cy="30" r="2.70" fill="#7be3ff" opacity="0.35" />
  <circle cx="35" cy="30" r="1.8" fill="#fff7e0" />
  <circle cx="50" cy="60" r="4.32" fill="#7be3ff" opacity="0.18" />
  <circle cx="50" cy="60" r="2.70" fill="#7be3ff" opacity="0.35" />
  <circle cx="50" cy="60" r="1.8" fill="#fff7e0" />
  <circle cx="70" cy="35" r="4.32" fill="#7be3ff" opacity="0.18" />
  <circle cx="70" cy="35" r="2.70" fill="#7be3ff" opacity="0.35" />
  <circle cx="70" cy="35" r="1.8" fill="#fff7e0" />
  <circle cx="88" cy="55" r="4.32" fill="#7be3ff" opacity="0.18" />
  <circle cx="88" cy="55" r="2.70" fill="#7be3ff" opacity="0.35" />
  <circle cx="88" cy="55" r="1.8" fill="#fff7e0" />
</svg>
